<svg width="20" height="20" viewBox="0 0 20 20" fill="none" xmlns="http://www.w3.org/2000/svg">
<g opacity="0.3">
<path fill-rule="evenodd" clip-rule="evenodd" d="M18.3334 10C18.3334 14.6024 14.6025 18.3333 10.0001 18.3333C5.39771 18.3333 1.66675 14.6024 1.66675 10C1.66675 5.39764 5.39771 1.66668 10.0001 1.66668C14.6025 1.66668 18.3334 5.39764 18.3334 10ZM13.0893 8.08927C13.4148 7.76383 13.4148 7.23619 13.0893 6.91076C12.7639 6.58532 12.2363 6.58532 11.9108 6.91076L10.0001 8.8215L8.08934 6.91076C7.7639 6.58532 7.23626 6.58532 6.91083 6.91076C6.58539 7.23619 6.58539 7.76383 6.91083 8.08927L8.82157 10L6.91083 11.9108C6.58539 12.2362 6.58539 12.7638 6.91083 13.0893C7.23626 13.4147 7.7639 13.4147 8.08934 13.0893L10.0001 11.1785L11.9108 13.0893C12.2363 13.4147 12.7639 13.4147 13.0893 13.0893C13.4148 12.7638 13.4148 12.2362 13.0893 11.9108L11.1786 10L13.0893 8.08927Z" fill="#333333"/>
</g>
</svg>
